<?xml version="1.0" encoding="UTF-8" standalone="no"?>
<!-- Created with Inkscape (http://www.inkscape.org/) -->

<svg
   width="511.99997"
   height="731.01978"
   viewBox="0 0 135.46665 193.41566"
   version="1.1"
   id="svg5"
   inkscape:version="1.2.2 (b0a8486541, 2022-12-01)"
   sodipodi:docname="in-idea-agent-logo.svg"
   inkscape:export-filename="idea-agent-logo.png"
   inkscape:export-xdpi="67.239998"
   inkscape:export-ydpi="67.239998"
   xmlns:inkscape="http://www.inkscape.org/namespaces/inkscape"
   xmlns:sodipodi="http://sodipodi.sourceforge.net/DTD/sodipodi-0.dtd"
   xmlns="http://www.w3.org/2000/svg"
   xmlns:svg="http://www.w3.org/2000/svg">
  <sodipodi:namedview
     id="namedview7"
     pagecolor="#505050"
     bordercolor="#ffffff"
     borderopacity="1"
     inkscape:showpageshadow="0"
     inkscape:pageopacity="0"
     inkscape:pagecheckerboard="1"
     inkscape:deskcolor="#505050"
     inkscape:document-units="mm"
     showgrid="true"
     showguides="true"
     inkscape:lockguides="false"
     inkscape:zoom="0.64"
     inkscape:cx="583.59375"
     inkscape:cy="13.28125"
     inkscape:window-width="2478"
     inkscape:window-height="1403"
     inkscape:window-x="0"
     inkscape:window-y="0"
     inkscape:window-maximized="1"
     inkscape:current-layer="layer1" />
  <defs
     id="defs2" />
  <g
     inkscape:label="Ebene 1"
     inkscape:groupmode="layer"
     id="layer1"
     transform="translate(0,-34.655193)">
    <rect
       style="fill:#0b1728;stroke-width:0.264583"
       id="rect143"
       width="135.46666"
       height="135.46666"
       x="1.6319484e-07"
       y="92.604179"
       rx="14.816667"
       ry="14.816667" />
    <rect
       style="fill:#0b1728;stroke-width:0.264583"
       id="rect143-3"
       width="135.46666"
       height="52.280388"
       x="-6.6909441e-15"
       y="34.655193"
       rx="14.816667"
       ry="14.816667" />
    <circle
       style="fill:#ffffff;stroke-width:0.264583"
       id="path2321"
       cx="67.73333"
       cy="110.06667"
       r="2.6458352" />
    <circle
       style="fill:#ffffff;stroke-width:0.264583"
       id="path2323"
       cx="67.73333"
       cy="210.60834"
       r="2.6458335" />
    <circle
       style="fill:#ffffff;stroke-width:0.264583"
       id="circle2325"
       cx="67.73333"
       cy="210.60834"
       r="2.6458335" />
    <circle
       style="fill:#ffffff;stroke-width:0.264583"
       id="circle2325-3"
       cx="54.071861"
       cy="160.33749"
       r="2.6458335" />
    <path
       id="path2362"
       style="fill:#ffffff;stroke-width:0.264583"
       d="m 63.045764,107.66475 a 52.916664,52.916664 0 0 0 -48.229097,52.67275 52.916664,52.916664 0 0 0 48.19034,52.64485 5.2916651,5.2916651 0 0 1 -0.56534,-2.37401 5.2916651,5.2916651 0 0 1 0.88315,-2.92334 47.486008,47.625 0 0 1 -42.938464,-47.3475 47.486008,47.625 0 0 1 42.924511,-47.37333 5.2916651,5.2916651 0 0 1 -0.869197,-2.8975 5.2916651,5.2916651 0 0 1 0.604097,-2.40192 z" />
    <path
       id="rect2492"
       style="fill:#ffffff;stroke-width:0.264583"
       d="m 66.410417,115.18677 v 90.30147 a 5.2916651,5.2916651 0 0 1 1.322916,-0.17157 5.2916651,5.2916651 0 0 1 1.322917,0.16847 v -90.29837 a 5.2916651,5.2916651 0 0 1 -1.322917,0.17157 5.2916651,5.2916651 0 0 1 -1.322916,-0.17157 z" />
    <path
       id="rect2492-7"
       style="fill:#ffffff;stroke-width:0.182088"
       d="m 22.804293,159.00063 a 44.979168,44.979168 0 0 0 -0.05013,1.33687 44.979168,44.979168 0 0 0 0.04909,1.30897 h 26.144658 a 5.2916651,5.2916651 0 0 1 -0.167949,-1.30897 5.2916651,5.2916651 0 0 1 0.1757,-1.33687 z m 36.387443,0 a 5.2916651,5.2916651 0 0 1 0.171566,1.33687 5.2916651,5.2916651 0 0 1 -0.167432,1.30897 h 3.413745 a 5.2916651,5.2916651 0 0 1 -0.167948,-1.30897 5.2916651,5.2916651 0 0 1 0.1757,-1.33687 z" />
    <path
       id="rect2492-2"
       style="fill:#ffffff;stroke-width:0.25435"
       inkscape:transform-center-x="12.733929"
       inkscape:transform-center-y="47.179542"
       d="m 64.931954,114.55167 -10.8505,40.49468 a 5.2916651,5.2916651 0 0 1 2.56005,0.66766 L 67.457381,115.348 a 5.2916651,5.2916651 0 0 1 -2.525427,-0.79633 z m -13.497368,50.37263 -8.767423,32.71894 a 44.979168,44.979168 0 0 0 2.342493,1.48104 l 8.976712,-33.50235 a 5.2916651,5.2916651 0 0 1 -2.551782,-0.69763 z" />
    <path
       id="rect2367"
       style="fill:#ffffff;stroke-width:0.264583"
       d="m 72.314449,107.42084 a 5.2916651,5.2916651 0 0 1 0.710551,2.64583 5.2916651,5.2916651 0 0 1 -0.722953,2.64583 h 47.025033 c 0.7329,0 1.32292,-0.59002 1.32292,-1.32291 v -2.64584 c 0,-0.73289 -0.59002,-1.32291 -1.32292,-1.32291 z" />
    <path
       id="rect2369"
       style="fill:#ffffff;stroke-width:0.264583"
       d="m 72.314449,207.9625 a 5.2916651,5.2916651 0 0 1 0.710551,2.64584 5.2916651,5.2916651 0 0 1 -0.722953,2.64583 h 47.025033 c 0.7329,0 1.32292,-0.59002 1.32292,-1.32292 v -2.64583 c 0,-0.7329 -0.59002,-1.32292 -1.32292,-1.32292 z" />
    <rect
       style="fill:#ffffff;stroke-width:0.267149"
       id="rect2738"
       width="18.328606"
       height="5.291667"
       x="97.029724"
       y="157.69167"
       rx="1.3486998"
       ry="1.3229166" />
    <rect
       style="fill:#ffffff;stroke-width:0.267149"
       id="rect2738-4"
       width="18.328606"
       height="5.291667"
       x="73.024994"
       y="157.69167"
       rx="1.3486998"
       ry="1.3229166" />
    <circle
       style="fill:#ffffff;fill-opacity:1;stroke-width:1.32292;stroke-dasharray:1.32292, 1.32292;stroke-opacity:0.3"
       id="path538"
       cx="42.667164"
       cy="60.79538"
       r="14.050531" />
    <circle
       style="fill:#ffffff;fill-opacity:1;stroke-width:1.32292;stroke-dasharray:1.32292, 1.32292;stroke-opacity:0.3"
       id="path538-7"
       cx="91.3536"
       cy="60.795387"
       r="14.050531" />
  </g>
</svg>
